<?xml version="1.0" encoding="UTF-8"?>
<svg id="Layer_1" xmlns="http://www.w3.org/2000/svg" xmlns:xlink="http://www.w3.org/1999/xlink" xmlns:serif="http://www.serif.com/" version="1.1" viewBox="0 0 745.1 607.7">
  <!-- Generator: Adobe Illustrator 29.3.0, SVG Export Plug-In . SVG Version: 2.1.0 Build 146)  -->
  <defs>
    <style>
      .st0 {
        fill: url(#Degradado_sin_nombre_2);
      }

      .st1 {
        fill: url(#Degradado_sin_nombre_21);
      }
    </style>
    <linearGradient id="Degradado_sin_nombre_2" data-name="Degradado sin nombre 2" x1="634.7" y1="-74.1" x2="102.6" y2="302.5" gradientUnits="userSpaceOnUse">
      <stop offset="0" stop-color="#16ecfd"/>
      <stop offset="1" stop-color="#124ae8"/>
    </linearGradient>
    <linearGradient id="Degradado_sin_nombre_21" data-name="Degradado sin nombre 2" x1="114.2" y1="650.5" x2="656.7" y2="270.5" xlink:href="#Degradado_sin_nombre_2"/>
  </defs>
  <path class="st0" d="M387,264.7h-31.7l38.2-134.9h32.5c28.4,0,42.6,12.5,42.6,37.5s-1.7,19-5.1,29.6c-2.9,10.2-6.1,19-9.7,26.7L745.1,0l-243.4,64.9h.1c-2,0-3.9,0-5.9,0H170.1s35.2,49.4,36.9,53c1.7,3.6,2.5,8.1,2.5,13.3s-1,11.8-2.9,18l-91.9,331.1c-.4,1.5-.9,3-1.4,4.4l288-221c-4.5.6-9.3.9-14.4.9Z"/>
  <path class="st1" d="M353,338.2h18.2c29.8,0,44.7,13,44.7,39s-1.7,20.2-5.1,31.7c-7.7,26.9-17.8,45.6-30.3,55.9-12.5,10.3-29.1,15.5-49.8,15.5h-36.8l36-124.4L1.9,607.7l258.6-62.4h139.5c58.7,0,104-9,136-27.1,32-18,53.3-45.8,63.8-83.3,3.8-14.4,5.8-26.9,5.8-37.5,0-23.1-6.7-42.4-20.2-58.1-13.5-15.6-31.7-26.8-54.8-33.5,66.4-13,106.5-43.8,120.5-92.3,3.4-10.6,5.1-22.1,5.1-34.6,0-22-6.4-41.6-19-58.6l-284.1,218.1Z"/>
</svg>