<?xml version="1.0" encoding="UTF-8"?>
<svg id="Layer_1" xmlns="http://www.w3.org/2000/svg" xmlns:xlink="http://www.w3.org/1999/xlink" version="1.1" viewBox="0 0 33.2 46.3">
  <!-- Generator: Adobe Illustrator 29.3.0, SVG Export Plug-In . SVG Version: 2.1.0 Build 146)  -->
  <defs>
    <style>
      .st0 {
        fill: #d6bd96;
      }
    </style>
  </defs>
  <path class="st0" d="M30.3,17.2c.3-1.1.4-2.2.4-3.3,0-7.7-6.2-13.9-13.9-13.9S2.8,6.2,2.8,13.9s.1,2.2.4,3.3c.4,2.3.9,4.1,1.5,5.4,1.4,2.9,7.1,12.4,9.8,16.7-3.6.5-5.2,2-5.2,3.4s2.3,3.6,7.5,3.6,7.5-1.9,7.5-3.6-1.7-3-5.2-3.4c2.6-4.3,8.4-13.8,9.8-16.7.6-1.3,1.1-3.2,1.5-5.4ZM22,42.7c-.1.4-1.9,1.4-5.3,1.4s-5.2-1-5.3-1.4c0-.4,1.6-1.2,4.3-1.4,0,0,0,0,0,.1.2.3.5.5.9.5s.7-.2.9-.5c0,0,0,0,0-.1,2.7.2,4.2,1,4.3,1.4ZM28.2,16.7s0,0,0,0c-.3,2-.8,3.7-1.3,4.9-1.4,2.9-7.7,13.3-10.1,17.1-2.4-3.9-8.7-14.2-10.1-17.1-.5-1.1-1-2.8-1.3-4.9,0,0,0,0,0,0-.2-.9-.3-1.9-.3-2.8,0-6.5,5.3-11.8,11.8-11.8s11.8,5.3,11.8,11.8-.1,1.9-.3,2.8Z"/>
  <path class="st0" d="M16.7,6.1c-4.1,0-7.5,3.4-7.5,7.5s3.4,7.5,7.5,7.5,7.5-3.4,7.5-7.5-3.4-7.5-7.5-7.5ZM16.7,18.9c-2.9,0-5.3-2.4-5.3-5.3s2.4-5.3,5.3-5.3,5.3,2.4,5.3,5.3-2.4,5.3-5.3,5.3Z"/>
</svg>