<?xml version="1.0" encoding="UTF-8"?>
<svg id="Layer_1" xmlns="http://www.w3.org/2000/svg" xmlns:xlink="http://www.w3.org/1999/xlink" version="1.1" viewBox="0 0 42.9 46.1">
  <!-- Generator: Adobe Illustrator 29.3.0, SVG Export Plug-In . SVG Version: 2.1.0 Build 146)  -->
  <defs>
    <style>
      .st0 {
        fill: #d6bd96;
      }
    </style>
  </defs>
  <path class="st0" d="M3.9,7.3c-.2.2-.3.4-.5.6-1.4,1.2-2.5,4-1.9,7.3,2.8,14.6,15.1,25.7,29.8,27,.3,0,.6,0,.9,0,1.7,0,3.3-.4,4.6-1.2.6-.4,1.2-.8,1.6-1.3l1.3-1.4c2.5-2.7,2.3-7-.5-9.4l-2.1-1.9c-1.2-1.1-2.8-1.7-4.5-1.7s-3.7.8-5,2.2l-1.3,1.4c-.5.5-.9,1.2-1.2,1.8-5.1-2.1-9.2-5.9-11.8-10.8.9-.4,1.8-1,2.4-1.7l1.3-1.4c1.2-1.3,1.8-3,1.7-4.8,0-1.8-.9-3.4-2.2-4.6l-2.1-1.9c-1.2-1.1-2.8-1.7-4.5-1.7s-3.7.8-5,2.2l-1.3,1.4ZM6.4,7.1c.9-1,2.3-1.6,3.7-1.6s2.4.5,3.3,1.3l2.1,1.9c1,.9,1.6,2.1,1.6,3.4,0,1.3-.4,2.6-1.3,3.6l-1.3,1.4h0c-.6.7-1.4,1.2-2.2,1.4h-.4c-.2.2-.4.4-.5.6-.1.2,0,.5,0,.7l.2.4c2.8,5.6,7.6,10,13.4,12.3h.3c.2.2.5.2.7.1.2-.1.4-.3.5-.5v-.3c.3-.7.7-1.2,1.1-1.7l1.3-1.4c.9-1,2.3-1.6,3.7-1.6s2.4.5,3.3,1.3l2.1,1.9c2,1.8,2.2,5,.4,7l-1.3,1.4c-.3.4-.8.7-1.2,1-1.2.7-2.8,1.1-4.5.9-14-1.3-25.7-11.8-28.3-25.6-.6-2.9.5-5,1.3-5.7,0,0,0,0,0,0h0c0,0,0-.1,0-.2.1-.2.3-.3.4-.5l1.3-1.4Z"/>
</svg>