<?xml version="1.0" encoding="UTF-8"?>
<svg id="Layer_1" xmlns="http://www.w3.org/2000/svg" xmlns:xlink="http://www.w3.org/1999/xlink" version="1.1" viewBox="0 0 40.6 46.7">
  <!-- Generator: Adobe Illustrator 29.3.0, SVG Export Plug-In . SVG Version: 2.1.0 Build 146)  -->
  <defs>
    <style>
      .st0 {
        fill: #d6bd96;
      }
    </style>
  </defs>
  <path class="st0" d="M-.3,19.7c-.5.7-.9,1.5-.9,2.4v20.7c0,2.1,1.7,3.9,3.9,3.9h.6c0,0,0,0,0,0h32.7c0,0,0,0,0,0h.5c2.1,0,3.9-1.7,3.9-3.9v-20.7c0-.9-.3-1.8-.9-2.4,0-.3,0-.5-.3-.7L20.4,0c-.4-.4-1.1-.4-1.5,0L0,19c-.2.2-.3.5-.3.7ZM5.1,45l9.7-9.7,4.1,4.1c.2.2.5.3.7.3s.5-.1.7-.3l4.1-4.1,9.7,9.7H5.1ZM8.3,26.4v-7.2h23.3v6.9l-11.8,11.8-11.5-11.5ZM38.9,22.2v20.7c0,1-.7,1.9-1.7,2.1l-11.1-11.1,12.6-12.6c.1.3.2.6.2.9ZM19.7,2.2l17.5,17.5-4.5,4.5v-5.7c0-.3-.3-.6-.6-.6H7.6c-.3,0-.6.3-.6.6v6l-4.8-4.8L19.7,2.2ZM.6,22.2c0-.3,0-.7.2-.9l12.6,12.6-11.1,11.1c-1-.2-1.7-1.1-1.7-2.1v-20.7Z"/>
</svg>